<svg width="24" height="24" viewBox="0 0 24 24" fill="none" xmlns="http://www.w3.org/2000/svg"><path d="M13.775 9.271v-.513c0-.39.08-.718.241-.985.16-.27.445-.533.855-.788.325-.203.557-.386.698-.549a.822.822 0 0 0 .216-.56.443.443 0 0 0-.228-.395c-.153-.099-.351-.149-.596-.149-.606 0-1.314.213-2.125.639L12 4.347c.999-.565 2.042-.847 3.13-.847.894 0 1.596.195 2.106.585.51.39.764.921.764 1.593 0 .482-.114.9-.343 1.254-.225.35-.586.682-1.083.996-.422.27-.686.47-.795.597a.662.662 0 0 0-.156.442v.304h-1.848ZM13.517 11.36c0-.366.106-.649.319-.847.216-.2.533-.299.95-.299.402 0 .709.102.921.305.217.198.325.479.325.841s-.112.643-.337.842c-.22.198-.524.298-.909.298-.397 0-.708-.098-.932-.292-.225-.2-.337-.482-.337-.848Z" fill="#544BC9"></path><path fill-rule="evenodd" clip-rule="evenodd" d="M6 3a3 3 0 0 1 3-3h12a3 3 0 0 1 3 3v10a3.001 3.001 0 0 1-2 2.83V19a1 1 0 0 1-1.707.707l-2.318-2.318A3 3 0 0 1 15 20H7.414l-3.707 3.707A1 1 0 0 1 2 23v-3.17A3.001 3.001 0 0 1 0 17V7a3 3 0 0 1 3-3h3V3Zm10.586 11a2 2 0 0 1 1.414.586l2 2v-.757a2 2 0 0 1 1.334-1.885c.39-.139.666-.512.666-.944V3a1 1 0 0 0-1-1H9a1 1 0 0 0-1 1v10a1 1 0 0 0 1 1h7.586ZM6 6H3a1 1 0 0 0-1 1v10c0 .432.275.805.666.944A2 2 0 0 1 4 19.829v.757l2-2A2 2 0 0 1 7.414 18H15a1 1 0 0 0 1-1v-1H9a3 3 0 0 1-3-3V6Z" fill="#544BC9"></path></svg>