<svg class="tabBarIcon" viewBox="0 0 350 350" xmlns="http://www.w3.org/2000/svg"><style>.st1{fill:#544bc9}</style><path class="st1" d="M178 .086c-26-2.7-47 17-54 38H54c-29 0-52 23-52 52v208c0 28 23 52 52 52h127c15 0 29-6.9 38-18 50 5.2 64-18 72-33l55-201c6.1-33 1.9-51-34-63-36-12-91-30-134-35zm-1.9 23c43 7 87 23 129 34 14 3.9 21 19 17 33l-55 200c-10 18-36 14-35 13 0 0 .1-76 .1-114 6.9-3.6 13-8.7 17-16 7.7-16-2.6-30-17-32v-53c0-29-24-52-52-52h-27c1.3-8.6 14-16 23-15zm-122 41h126c14 0 26 11 26 26 .14 72 .3 143 .53 215-1.1 16-18 21-25 21h-127c-15 0-26-14-26-28v-208c0-15 11-26 26-26z" stroke-width="13"></path><path class="st1" d="M119 171c-18-16-44-5.2-39 19 5.2 25 39 36 39 36s35-12 39-36c3.9-25-21-34-39-19z" stroke-width="13"></path></svg>