<svg width="90" height="90" viewBox="0 0 90 90" fill="none" xmlns="http://www.w3.org/2000/svg">
<path d="M79.6353 47.7472H18.9841V54.0736H79.6353V47.7472Z" fill="url(#paint0_linear)"/>
<path d="M75.8446 81.9101H22.7748C19.995 81.9101 17.7206 79.6325 17.7206 76.8489V41.4208C17.7206 38.6371 19.995 36.3596 22.7748 36.3596H75.8446C78.6245 36.3596 80.8989 38.6371 80.8989 41.4208V76.8489C80.8989 79.6325 78.6245 81.9101 75.8446 81.9101ZM22.7748 38.8902C21.3849 38.8902 20.2477 40.029 20.2477 41.4208V76.8489C20.2477 78.2407 21.3849 79.3795 22.7748 79.3795H75.8446C77.2346 79.3795 78.3718 78.2407 78.3718 76.8489V41.4208C78.3718 40.029 77.2346 38.8902 75.8446 38.8902H22.7748Z" fill="url(#paint1_linear)"/>
<path d="M79.6353 49.0125H18.9841C18.226 49.0125 17.7206 48.5064 17.7206 47.7472C17.7206 46.988 18.226 46.4819 18.9841 46.4819H79.6353C80.3935 46.4819 80.8989 46.988 80.8989 47.7472C80.8989 48.5064 80.2671 49.0125 79.6353 49.0125Z" fill="url(#paint2_linear)"/>
<path d="M79.6353 55.3389H18.9841C18.226 55.3389 17.7206 54.8328 17.7206 54.0736C17.7206 53.3145 18.226 52.8083 18.9841 52.8083H79.6353C80.3935 52.8083 80.8989 53.3145 80.8989 54.0736C80.8989 54.8328 80.2671 55.3389 79.6353 55.3389Z" fill="url(#paint3_linear)"/>
<path d="M74.581 73.053H35.4105V75.5836H74.581V73.053Z" fill="url(#paint4_linear)"/>
<path d="M73.3175 67.9918H70.7903V70.5224H73.3175V67.9918Z" fill="url(#paint5_linear)"/>
<path d="M68.2632 67.9918H65.7361V70.5224H68.2632V67.9918Z" fill="url(#paint6_linear)"/>
<path d="M63.209 67.9918H60.6818V70.5224H63.209V67.9918Z" fill="url(#paint7_linear)"/>
<path d="M14.0562 54.0737C13.6772 54.0737 13.1717 53.8206 12.919 53.441L5.7167 40.6616C4.32678 38.2576 5.21128 35.0943 7.61205 33.7025L53.2268 6.75184C54.364 6.1192 55.7539 5.86615 57.0175 6.24573C58.281 6.62532 59.4183 7.51101 60.05 8.64978L73.0648 31.8046C73.4438 32.4372 73.1911 33.1964 72.5593 33.576C71.9276 33.9556 71.1694 33.7025 70.7904 33.0699L57.7756 9.91507C57.3965 9.28242 56.8911 8.90284 56.2593 8.77631C55.6276 8.64978 54.9958 8.64978 54.364 9.02937L8.87562 35.8535C7.61205 36.6127 7.23297 38.131 7.99111 39.3963L15.1934 52.1758C15.5725 52.8084 15.3198 53.5676 14.688 53.9472C14.4353 53.9472 14.1826 54.0737 14.0562 54.0737Z" fill="url(#paint8_linear)"/>
<defs>
<linearGradient id="paint0_linear" x1="49.3097" y1="47.7472" x2="49.3097" y2="54.0736" gradientUnits="userSpaceOnUse">
<stop stop-color="#FFF"/>
<stop offset="1" stop-color="#FFF"/>
</linearGradient>
<linearGradient id="paint1_linear" x1="49.3097" y1="36.3596" x2="49.3097" y2="81.9101" gradientUnits="userSpaceOnUse">
<stop stop-color="#FFF"/>
<stop offset="1" stop-color="#FFF"/>
</linearGradient>
<linearGradient id="paint2_linear" x1="49.3097" y1="46.4819" x2="49.3097" y2="49.0125" gradientUnits="userSpaceOnUse">
<stop stop-color="#FFF"/>
<stop offset="1" stop-color="#FFF"/>
</linearGradient>
<linearGradient id="paint3_linear" x1="49.3097" y1="52.8083" x2="49.3097" y2="55.3389" gradientUnits="userSpaceOnUse">
<stop stop-color="#FFF"/>
<stop offset="1" stop-color="#FFF"/>
</linearGradient>
<linearGradient id="paint4_linear" x1="54.9958" y1="73.053" x2="54.9958" y2="75.5836" gradientUnits="userSpaceOnUse">
<stop stop-color="#FFF"/>
<stop offset="1" stop-color="#FFF"/>
</linearGradient>
<linearGradient id="paint5_linear" x1="72.0539" y1="67.9918" x2="72.0539" y2="70.5224" gradientUnits="userSpaceOnUse">
<stop stop-color="#FFF"/>
<stop offset="1" stop-color="#FFF"/>
</linearGradient>
<linearGradient id="paint6_linear" x1="66.9996" y1="67.9918" x2="66.9996" y2="70.5224" gradientUnits="userSpaceOnUse">
<stop stop-color="#FFF"/>
<stop offset="1" stop-color="#FFF"/>
</linearGradient>
<linearGradient id="paint7_linear" x1="61.9454" y1="67.9918" x2="61.9454" y2="70.5224" gradientUnits="userSpaceOnUse">
<stop stop-color="#FFF"/>
<stop offset="1" stop-color="#FFF"/>
</linearGradient>
<linearGradient id="paint8_linear" x1="39.1495" y1="6.06738" x2="39.1495" y2="54.0737" gradientUnits="userSpaceOnUse">
<stop stop-color="#FFF"/>
<stop offset="1" stop-color="#FFF"/>
</linearGradient>
</defs>
</svg>
