<svg width="24" height="24" viewBox="0 0 24 24" fill="none" xmlns="http://www.w3.org/2000/svg"><g clip-path="url(#clip0)" fill="#544BC9"><path fill-rule="evenodd" clip-rule="evenodd" d="M15 1a1 1 0 0 0-1.604-.797L5.741 6H1a1 1 0 0 0-1 1v6a1 1 0 0 0 1 1h4.741l1.26.954L7 15v6H5v-5a1 1 0 1 0-2 0v6a1 1 0 0 0 1 1h4a1 1 0 0 0 1-1v-5.532l4.396 3.33A1 1 0 0 0 15 19V1ZM6.68 7.797 13 3.012v13.976l-6.32-4.785A1 1 0 0 0 6.078 12H2V8h4.077a1 1 0 0 0 .604-.203Z"></path><path d="M17 5a1 1 0 0 1 1-1 6 6 0 0 1 0 12 1 1 0 1 1 0-2 4 4 0 0 0 0-8 1 1 0 0 1-1-1Z"></path><path d="M18 7a1 1 0 1 0 0 2 1 1 0 1 1 0 2 1 1 0 1 0 0 2 3 3 0 1 0 0-6Z"></path></g><defs><clipPath id="clip0"><path fill="#fff" d="M0 0h24v24H0z"></path></clipPath></defs></svg>