<svg class="tabBarIcon" width="20" height="20" viewBox="5 3 21 24" fill="none" xmlns="http://www.w3.org/2000/svg"><path fill-rule="evenodd" clip-rule="evenodd" d="M17.895 15.318C19.746 14.382 21 12.575 21 10.5 21 7.462 18.314 5 15 5s-6 2.462-6 5.5c0 2.075 1.254 3.882 3.105 4.818C7.548 16.338 4 19.708 4 24a1 1 0 1 0 2 0c0-3.67 3.81-7 9-7 5.19 0 9 3.33 9 7a1 1 0 1 0 2 0c0-4.291-3.548-7.662-8.105-8.682ZM19 10.5c0 1.773-1.623 3.5-4 3.5s-4-1.727-4-3.5S12.623 7 15 7s4 1.727 4 3.5Z" fill="#544BC9"></path><path d="M26 5h-4a1 1 0 1 0 0 2h4a1 1 0 1 0 0-2Z" fill="#544BC9"></path><path d="M25 4a1 1 0 1 0-2 0v4a1 1 0 1 0 2 0V4Z" fill="#544BC9"></path></svg>