<svg width="90" height="90" viewBox="0 0 90 90" fill="none" xmlns="http://www.w3.org/2000/svg">
<path d="M85.1194 81.5666C85.1194 81.4472 85.1194 81.4472 85.1194 81.3277C83.6861 73.3247 80.1026 68.6662 75.4441 68.6662H74.3691C69.83 68.6662 66.1271 68.6662 62.4242 63.4104C62.1853 63.0521 61.827 62.9326 61.4686 62.9326C61.2297 62.9326 60.9908 63.0521 60.7519 63.1715C60.1547 63.5299 60.0352 64.366 60.3936 64.8438C64.4548 70.6968 69.1133 71.1746 73.4135 71.1746C73.7718 71.1746 74.0107 71.1746 74.3691 71.1746H75.3247C78.072 71.1746 80.4609 73.9219 81.8943 78.8193C82.0138 79.1776 81.8943 79.6554 81.6554 80.0138C81.4165 80.3721 81.0582 80.4916 80.5804 80.4916H11.4196C11.0613 80.4916 10.5835 80.2527 10.3446 80.0138C10.1057 79.6554 9.98622 79.2971 10.1057 78.8193C11.5391 73.9219 13.928 71.1746 16.6754 71.1746H17.6309C17.9893 71.1746 18.3476 71.1746 18.5865 71.1746C23.1256 71.1746 27.9035 70.6968 32.0842 64.8438C32.4426 64.2466 32.3231 63.5299 31.7259 63.1715C31.487 63.0521 31.2481 62.9326 31.0092 62.9326C30.6508 62.9326 30.1731 63.1715 30.0536 63.4104C26.5896 68.3078 22.8867 68.6662 18.4671 68.6662H16.6754C12.0169 68.6662 8.43338 73.4441 7 81.3277C7 81.4472 7 81.4472 7 81.5666V81.6861V81.8055C7 81.925 7 82.0444 7 82.0444C7 82.1639 7.00001 82.1639 7.11946 82.2833C7.11946 82.4028 7.23889 82.4028 7.23889 82.5222L7.35835 82.6417C7.4778 82.6417 7.47779 82.7611 7.59724 82.7611C7.59724 82.7611 7.71669 82.7611 7.83614 82.8805C7.95559 82.8805 7.95558 82.8806 8.07503 83H8.19449H83.6861H83.8055C83.925 83 83.925 82.8805 84.0444 82.8805C84.1639 82.8805 84.1639 82.8806 84.2833 82.7611C84.4028 82.7611 84.4027 82.6417 84.5222 82.6417C84.6416 82.6417 84.6417 82.5222 84.6417 82.5222C84.6417 82.5222 84.7611 82.4028 84.7611 82.2833C84.7611 82.1639 84.8805 82.1639 84.8805 82.0444C84.8805 82.0444 84.8805 81.925 84.8805 81.8055C85.1194 81.8055 85.1194 81.6861 85.1194 81.5666C85.1194 81.5666 85.1194 81.6861 85.1194 81.5666Z" fill="url(#paint0_linear)"/>
<path d="M23.4839 47.6432H30.2925C30.4119 47.6432 30.5314 47.6432 30.6508 47.7626C30.7703 47.8821 30.7703 48.0015 30.8897 48.121C34.1149 56.7213 40.4456 62.6937 46.1792 62.6937C47.1348 62.6937 48.0904 62.5743 49.0459 62.2159C49.6432 61.977 50.0015 61.2603 49.8821 60.6631C49.7626 60.1853 49.2848 59.827 48.6876 59.827C48.5681 59.827 48.4487 59.827 48.3293 59.827C47.6126 60.0659 46.8959 60.1853 46.1792 60.1853C40.2067 60.1853 31.0092 50.3905 31.0092 35.5789C31.0092 20.5283 39.2512 17.4227 46.1792 17.4227C51.3155 17.4227 55.2573 19.095 57.7657 22.4395C58.0046 22.7979 58.3629 22.9173 58.7213 22.9173C58.9602 22.9173 59.1991 22.7979 59.438 22.6784C59.6769 22.4395 59.9158 22.2006 59.9158 21.8423C59.9158 21.4839 59.9158 21.245 59.6769 20.8867C56.6907 16.9449 52.0322 14.9142 46.0597 14.9142C36.9816 14.9142 30.8897 19.9311 29.098 29.0092C28.9786 29.6064 28.5008 30.0842 27.7841 30.0842H25.8729C25.1562 30.0842 24.559 29.487 24.559 28.7703C24.559 21.4839 26.3507 16.2282 29.8147 12.6447C33.3982 9.06127 38.6539 7.38897 45.9403 7.38897C53.2267 7.38897 58.4824 9.06127 62.0659 12.6447C65.6493 16.2282 67.3216 21.4839 67.3216 28.7703C67.3216 29.487 66.7243 30.0842 66.0077 30.0842H64.9326H61.9464H61.8269C61.1103 30.2037 60.6325 30.8009 60.7519 31.3982C60.8714 32.7121 60.9908 34.1455 60.9908 35.5789C60.9908 39.1623 60.3936 42.6263 59.3185 45.9709C59.1991 46.3293 59.1991 46.5682 59.438 46.9265C59.5574 47.1654 59.7963 47.4043 60.1547 47.5237C60.2741 47.5237 60.3936 47.5237 60.513 47.5237C60.6325 47.5237 61.4686 47.5237 66.0077 47.5237C66.7243 47.5237 67.3216 48.121 67.3216 48.8377C67.3216 50.9877 65.6493 52.66 63.4992 52.66H53.4655C52.7488 52.66 52.1516 52.0628 52.1516 51.3461V48.8377C52.1516 48.121 51.5544 47.6432 50.9571 47.6432C50.2404 47.6432 49.7626 48.2404 49.7626 48.8377V53.8545C49.7626 54.5712 50.3599 55.049 50.9571 55.049H63.4992C66.9633 55.049 69.7106 52.1822 69.7106 48.8377V48.3599C69.7106 47.7626 70.0689 47.2848 70.5467 47.1654C73.0551 46.3293 74.7274 43.9403 74.7274 41.3124V36.415C74.7274 33.7871 73.0551 31.3982 70.4273 30.562C70.0689 30.4426 69.83 30.2037 69.7106 29.9648C69.7106 29.8453 69.7106 29.8453 69.7106 29.7259V28.8897C69.7106 21.0061 67.6799 15.0337 63.6187 11.0919C59.5574 7.03064 53.585 5 45.7014 5C37.8178 5 31.8453 7.03064 27.7841 11.0919C23.7228 15.1531 21.6922 21.1256 21.6922 28.8897V29.7259C21.6922 29.8453 21.6922 29.8453 21.6922 29.9648C21.5727 30.3231 21.3338 30.4426 20.9755 30.562C18.4671 31.3982 16.6754 33.7871 16.6754 36.415V41.4319C17.2726 44.8959 20.0199 47.6432 23.4839 47.6432ZM72.6968 36.415V41.4319C72.6968 43.5819 71.0245 45.2542 68.8744 45.2542H64.0965C63.7381 45.2542 63.3798 45.1348 63.1409 44.7764C62.902 44.4181 62.7825 44.0597 62.902 43.7014C63.4992 41.0735 63.8576 38.3262 63.8576 35.6983C63.8576 35.1011 63.8576 34.5038 63.8576 33.9066C63.8576 33.5482 63.977 33.1899 64.2159 32.951C64.4548 32.7121 64.8132 32.5927 65.1715 32.5927H68.9939C70.905 32.5927 72.6968 34.2649 72.6968 36.415ZM19.6616 36.415C19.6616 34.2649 21.3338 32.5927 23.4839 32.5927H27.3063C27.6646 32.5927 28.023 32.7121 28.2619 32.951C28.5008 33.1899 28.6202 33.5482 28.6202 33.9066V34.1455C28.6202 34.6233 28.6202 35.1011 28.6202 35.6983C28.6202 38.3262 28.9786 41.0735 29.5758 43.7014C29.6952 44.0597 29.5758 44.5375 29.3369 44.7764C29.098 45.1348 28.7397 45.2542 28.3813 45.2542H23.7228C21.5727 45.2542 19.9005 43.5819 19.9005 41.4319V36.415H19.6616Z" fill="url(#paint1_linear)"/>
<defs>
<linearGradient id="paint0_linear" x1="46.0597" y1="62.9326" x2="46.0597" y2="83" gradientUnits="userSpaceOnUse">
<stop stop-color="#FFF"/>
<stop offset="1" stop-color="#FFF"/>
</linearGradient>
<linearGradient id="paint1_linear" x1="45.7014" y1="5" x2="45.7014" y2="62.6937" gradientUnits="userSpaceOnUse">
<stop stop-color="#FFF"/>
<stop offset="1" stop-color="#FFF"/>
</linearGradient>
</defs>
</svg>
